<svg width="512" height="512" viewBox="0 0 512 512" fill="none" xmlns="http://www.w3.org/2000/svg">
<path d="M482 80H458V30C458 13.458 444.542 0 428 0H84C67.458 0 54 13.458 54 30V80H30C13.458 80 0 93.458 0 110V397.998C0 414.54 13.458 427.998 30 427.998H206V451.996H186.976C170.434 451.996 156.976 465.454 156.976 481.996V502C156.976 507.523 161.453 512 166.976 512H345.025C350.548 512 355.025 507.523 355.025 502V481.996C355.025 465.454 341.567 451.996 325.025 451.996H306V427.998H482C498.542 427.998 512 414.54 512 397.998V110C512 93.458 498.542 80 482 80ZM482 100C487.514 100 492 104.486 492 110V339.998H458V100H482ZM84 20H428C433.514 20 438 24.486 438 30V80H74V30C74 24.486 78.486 20 84 20ZM30 100H54V174.99C54 180.513 58.477 184.99 64 184.99C69.523 184.99 74 180.513 74 174.99V100H438V339.998H387V307.044C387 301.521 382.523 297.044 377 297.044H363.989C361.702 289.17 358.564 281.6 354.606 274.407L363.811 265.203C367.716 261.298 367.716 254.966 363.811 251.06L333.451 220.7C329.546 216.796 323.214 216.796 319.308 220.7L310.104 229.905C302.912 225.947 295.341 222.809 287.467 220.523V207.512C287.467 201.989 282.99 197.512 277.467 197.512H234.531C229.008 197.512 224.531 201.989 224.531 207.512V220.523C216.657 222.81 209.087 225.947 201.894 229.905L192.69 220.7C188.785 216.796 182.453 216.796 178.547 220.7L148.187 251.06C144.282 254.965 144.282 261.297 148.187 265.203L157.392 274.407C153.434 281.599 150.296 289.17 148.009 297.044H135C129.477 297.044 125 301.521 125 307.044V339.998H74V264.99C74 259.467 69.523 254.99 64 254.99C58.477 254.99 54 259.467 54 264.99V339.998H20V110C20 104.486 24.486 100 30 100ZM177.045 265.774L169.402 258.131L185.62 241.913L193.263 249.556C196.6 252.891 201.815 253.442 205.775 250.875C215.238 244.739 225.615 240.438 236.618 238.092C241.234 237.108 244.533 233.031 244.533 228.312V217.51H267.469V228.312C267.469 233.031 270.768 237.108 275.384 238.092C286.386 240.438 296.763 244.738 306.227 250.875C310.187 253.442 315.402 252.892 318.739 249.556L326.382 241.913L342.6 258.131L334.957 265.774C331.621 269.111 331.07 274.326 333.638 278.286C339.774 287.75 344.075 298.127 346.421 309.129C347.405 313.744 351.482 317.044 356.201 317.044H367V339.998H304.657C305.547 336.248 306.006 332.394 306.006 328.512C306.006 300.938 283.573 278.506 256 278.506C228.427 278.506 205.994 300.939 205.994 328.512C205.994 332.394 206.453 336.248 207.343 339.998H145V317.044H155.801C160.52 317.044 164.597 313.745 165.581 309.129C167.927 298.126 172.228 287.749 178.364 278.286C180.932 274.327 180.382 269.111 177.045 265.774ZM225.994 328.512C225.994 311.967 239.454 298.506 256 298.506C272.546 298.506 286.006 311.967 286.006 328.512C286.006 332.461 285.207 336.362 283.69 339.998H228.31C226.793 336.362 225.994 332.461 225.994 328.512ZM335.024 481.996V492H176.976V481.996C176.976 476.482 181.462 471.996 186.976 471.996H325.025C330.539 471.996 335.024 476.482 335.024 481.996ZM286 451.996H226V427.998H286V451.996ZM482 407.998H30C24.486 407.998 20 403.512 20 397.998V359.998H492V397.998C492 403.512 487.514 407.998 482 407.998Z" fill="#195C5E"/>
<path d="M286 60H394C399.523 60 404 55.523 404 50C404 44.477 399.523 40 394 40H286C280.477 40 276 44.477 276 50C276 55.523 280.477 60 286 60Z" fill="#195C5E"/>
<path d="M162 60C164.63 60 167.21 58.93 169.07 57.07C170.93 55.21 172 52.63 172 50C172 47.37 170.93 44.79 169.07 42.93C167.21 41.07 164.63 40 162 40C159.37 40 156.79 41.07 154.93 42.93C153.07 44.79 152 47.37 152 50C152 52.63 153.07 55.21 154.93 57.07C156.79 58.93 159.37 60 162 60Z" fill="#195C5E"/>
<path d="M118 60C120.63 60 123.21 58.93 125.07 57.07C126.93 55.21 128 52.63 128 50C128 47.37 126.93 44.79 125.07 42.93C123.21 41.07 120.63 40 118 40C115.37 40 112.79 41.07 110.93 42.93C109.07 44.79 108 47.37 108 50C108 52.63 109.07 55.21 110.93 57.07C112.79 58.93 115.37 60 118 60Z" fill="#195C5E"/>
<path d="M206 60C208.63 60 211.21 58.93 213.07 57.07C214.93 55.21 216 52.63 216 50C216 47.37 214.93 44.79 213.07 42.93C211.21 41.07 208.63 40 206 40C203.37 40 200.79 41.07 198.93 42.93C197.07 44.79 196 47.37 196 50C196 52.63 197.07 55.21 198.93 57.07C200.79 58.93 203.37 60 206 60Z" fill="#195C5E"/>
<path d="M112 147.998H135.798C141.321 147.998 145.798 143.521 145.798 137.998C145.798 132.475 141.321 127.998 135.798 127.998H112C106.477 127.998 102 132.475 102 137.998C102 143.521 106.477 147.998 112 147.998Z" fill="#195C5E"/>
<path d="M179.798 147.998H271.536C277.059 147.998 281.536 143.521 281.536 137.998C281.536 132.475 277.059 127.998 271.536 127.998H179.798C174.275 127.998 169.798 132.475 169.798 137.998C169.798 143.521 174.275 147.998 179.798 147.998Z" fill="#195C5E"/>
<path d="M112 195.996H170C175.523 195.996 180 191.519 180 185.996C180 180.473 175.523 175.996 170 175.996H112C106.477 175.996 102 180.473 102 185.996C102 191.519 106.477 195.996 112 195.996Z" fill="#195C5E"/>
<path d="M315.536 147.998H400C405.523 147.998 410 143.521 410 137.998C410 132.475 405.523 127.998 400 127.998H315.536C310.013 127.998 305.536 132.475 305.536 137.998C305.536 143.521 310.013 147.998 315.536 147.998Z" fill="#195C5E"/>
<path d="M400 175.996H331.561C326.038 175.996 321.561 180.473 321.561 185.996C321.561 191.519 326.038 195.996 331.561 195.996H400C405.523 195.996 410 191.519 410 185.996C410 180.473 405.523 175.996 400 175.996Z" fill="#195C5E"/>
<path d="M64 229.99C66.63 229.99 69.21 228.92 71.07 227.06C72.93 225.2 74 222.62 74 219.99C74 217.36 72.93 214.78 71.07 212.92C69.21 211.06 66.63 209.99 64 209.99C61.37 209.99 58.79 211.06 56.93 212.92C55.07 214.78 54 217.36 54 219.99C54 222.62 55.07 225.2 56.93 227.06C58.79 228.92 61.37 229.99 64 229.99Z" fill="#195C5E"/>
</svg>
