<svg width="512" height="512" viewBox="0 0 512 512" fill="none" xmlns="http://www.w3.org/2000/svg">
<g clip-path="url(#clip0)">
<path d="M238 371.49C233.857 371.49 230.5 374.848 230.5 378.99C230.5 383.132 233.857 386.49 238 386.49H274C278.143 386.49 281.5 383.132 281.5 378.99C281.5 374.848 278.143 371.49 274 371.49H238Z" fill="#195C5E"/>
<path d="M90 255.034H139.576C142.604 262.915 150.233 268.534 159.167 268.534C168.101 268.534 175.73 262.915 178.758 255.034H188.667C192.81 255.034 196.167 251.676 196.167 247.534C196.167 243.392 192.81 240.034 188.667 240.034H178.758C175.73 232.153 168.101 226.534 159.167 226.534C150.233 226.534 142.604 232.153 139.576 240.034H90C85.857 240.034 82.5 243.392 82.5 247.534C82.5 251.676 85.857 255.034 90 255.034ZM159.167 241.534C162.476 241.534 165.167 244.225 165.167 247.534C165.167 250.843 162.476 253.534 159.167 253.534C155.858 253.534 153.167 250.843 153.167 247.534C153.167 244.225 155.858 241.534 159.167 241.534Z" fill="#195C5E"/>
<path d="M90 212.034H99.576C102.604 219.915 110.233 225.534 119.167 225.534C128.101 225.534 135.73 219.915 138.758 212.034H188.667C192.81 212.034 196.167 208.676 196.167 204.534C196.167 200.392 192.81 197.034 188.667 197.034H138.758C135.73 189.153 128.101 183.534 119.167 183.534C110.233 183.534 102.604 189.153 99.576 197.034H90C85.857 197.034 82.5 200.392 82.5 204.534C82.5 208.676 85.857 212.034 90 212.034ZM119.167 198.534C122.476 198.534 125.167 201.225 125.167 204.534C125.167 207.843 122.476 210.534 119.167 210.534C115.858 210.534 113.167 207.843 113.167 204.534C113.167 201.225 115.858 198.534 119.167 198.534Z" fill="#195C5E"/>
<path d="M190.167 143.034C194.309 143.034 197.667 139.676 197.667 135.534C197.667 131.392 194.309 128.034 190.167 128.034C186.025 128.034 182.667 131.392 182.667 135.534C182.667 139.676 186.025 143.034 190.167 143.034Z" fill="#195C5E"/>
<path d="M169.5 143.034C173.642 143.034 177 139.676 177 135.534C177 131.392 173.642 128.034 169.5 128.034C165.358 128.034 162 131.392 162 135.534C162 139.676 165.358 143.034 169.5 143.034Z" fill="#195C5E"/>
<path d="M148.833 143.034C152.975 143.034 156.333 139.676 156.333 135.534C156.333 131.392 152.975 128.034 148.833 128.034C144.691 128.034 141.333 131.392 141.333 135.534C141.333 139.676 144.691 143.034 148.833 143.034Z" fill="#195C5E"/>
<path d="M489.5 50.483H486.691L488.786 48.388C495.061 42.113 495.061 31.902 488.786 25.627L472.368 9.20898C466.093 2.93498 455.883 2.93498 449.607 9.20898L408.336 50.482H22.5C10.094 50.482 0 60.575 0 72.982V384.446C0 399.61 12.336 411.946 27.5 411.946H205.145V465.001H169C159.351 465.001 151.5 472.852 151.5 482.501V489.995C151.5 499.644 159.351 507.495 169 507.495H343C352.649 507.495 360.5 499.644 360.5 489.995V482.501C360.5 472.852 352.649 465.001 343 465.001H306.855V411.946H387C391.143 411.946 394.5 408.588 394.5 404.446C394.5 400.304 391.143 396.946 387 396.946H27.5C20.607 396.946 15 391.339 15 384.446V362.246H497V384.446C497 391.339 491.393 396.946 484.5 396.946H422C417.857 396.946 414.5 400.304 414.5 404.446C414.5 408.588 417.857 411.946 422 411.946H484.5C499.664 411.946 512 399.61 512 384.446V72.983C512 60.577 501.906 50.483 489.5 50.483ZM343 480.002C344.379 480.002 345.5 481.124 345.5 482.502V489.996C345.5 491.374 344.379 492.496 343 492.496H169C167.621 492.496 166.5 491.374 166.5 489.996V482.502C166.5 481.124 167.621 480.002 169 480.002H343ZM220.145 411.948H291.856V465.003H220.145V411.948ZM460.214 19.817C460.642 19.39 461.336 19.391 461.762 19.817L478.179 36.234C478.606 36.661 478.606 37.356 478.179 37.782L462.514 53.447L444.549 35.482L460.214 19.817ZM433.942 46.089L451.906 64.054L446.675 69.285L428.711 51.32L433.942 46.089ZM418.104 61.927L436.069 79.892L347.318 168.643L329.353 150.678L418.104 61.927ZM407 130.496C417.201 130.496 425.5 138.795 425.5 148.996C425.5 159.197 417.201 167.496 407 167.496C396.799 167.496 388.5 159.197 388.5 148.996C388.5 148.877 388.516 148.762 388.518 148.643L406.65 130.514C406.767 130.512 406.882 130.496 407 130.496ZM334.294 176.833L312.097 185.899L321.163 163.702L334.294 176.833ZM497 347.248H15V72.983C15 68.848 18.364 65.483 22.5 65.483H393.337L381.901 76.919H127C122.857 76.919 119.5 80.277 119.5 84.419C119.5 88.561 122.857 91.919 127 91.919H366.902L314.001 144.823C312.506 146.331 311.337 148.091 310.532 150.061L293.779 191.077C292.242 194.844 293.108 199.137 295.985 202.013C297.916 203.944 300.484 204.968 303.103 204.968C304.387 204.968 305.682 204.722 306.921 204.217L347.936 187.465C349.85 186.683 351.562 185.551 353.042 184.116L375.858 161.303C380.773 173.702 392.873 182.497 407.001 182.497C425.473 182.497 440.501 167.469 440.501 148.997C440.501 134.871 431.708 122.772 419.311 117.856L445.25 91.92H470.564V320.813H466.589L439.409 273.736C437.339 270.148 432.749 268.919 429.164 270.991C425.577 273.062 424.348 277.649 426.419 281.236L449.269 320.813H344.499L333.262 301.35L385.647 210.617L408.918 250.925C410.99 254.512 415.577 255.742 419.163 253.67C422.75 251.599 423.979 247.012 421.908 243.425L397.081 200.424C394.694 196.29 390.42 193.822 385.646 193.822C380.872 193.822 376.597 196.29 374.21 200.424L324.6 286.351L260.946 176.1C258.559 171.966 254.285 169.498 249.51 169.498C244.737 169.498 240.462 171.966 238.075 176.1L221.164 205.391V124.998C221.164 115.349 213.313 107.498 203.664 107.498H75C65.351 107.498 57.5 115.349 57.5 124.998V288.998C57.5 295.891 63.107 301.498 70 301.498H165.679L154.527 320.814H41.437V91.919H92C96.143 91.919 99.5 88.561 99.5 84.419C99.5 80.277 96.143 76.919 92 76.919H38.937C32.044 76.919 26.437 82.526 26.437 89.419V323.312C26.437 330.205 32.044 335.812 38.937 335.812H473.064C479.957 335.812 485.564 330.205 485.564 323.312V89.419C485.564 82.526 479.957 76.919 473.064 76.919H460.252L471.69 65.483H489.5C493.636 65.483 497 68.848 497 72.983V347.248ZM206.167 166.534V286.496H72.5V166.534H206.167ZM72.5 151.534V124.996C72.5 123.618 73.621 122.496 75 122.496H203.667C205.046 122.496 206.167 123.618 206.167 124.996V151.534H72.5ZM183 301.496H208.667C215.56 301.496 221.167 295.889 221.167 288.996V273.109C223.043 274.009 225.132 274.496 227.32 274.496C232.44 274.496 237.024 271.848 239.583 267.415L252.347 245.308C252.733 244.64 253.323 244.499 253.748 244.499C254.175 244.499 254.765 244.64 255.15 245.308L263.019 258.937C265.579 263.372 270.164 266.019 275.285 266.019C280.405 266.019 284.99 263.372 287.549 258.938L289.503 255.554L327.179 320.811H171.848L183 301.496ZM221.167 248.003V235.389L249.514 186.292L280.842 240.554L275.284 250.18L268.14 237.807C265.136 232.604 259.756 229.498 253.747 229.498C247.739 229.498 242.359 232.604 239.355 237.807L227.317 258.657L221.167 248.003Z" fill="#195C5E"/>
</g>
<defs>
<clipPath id="clip0">
<rect width="512" height="512" fill="white"/>
</clipPath>
</defs>
</svg>
