<svg width="1119" height="766" viewBox="0 0 1119 766" fill="none" xmlns="http://www.w3.org/2000/svg">
<g clip-path="url(#clip0)">
<path opacity="0.1" d="M649.58 113.22C577.91 110.94 509.64 89.7 444.46 66.47C379.28 43.24 314.7 17.47 244.74 5.18999C199.74 -2.73001 148.29 -3.81001 112.03 18.29C77.15 39.59 65.87 76.37 59.81 110.5C55.25 136.17 52.57 163.19 65.06 187.23C73.74 203.91 89.14 217.94 99.79 233.92C136.86 289.54 110.66 358.12 70.49 412.42C51.65 437.86 29.8 462.2 15.26 489.31C0.719998 516.42 -5.99 547.5 6.72 575.16C19.33 602.58 49.37 623.16 81.92 637.66C148.02 667.08 225.92 675.5 301.92 680.27C470.01 690.86 639.01 686.25 807.64 681.68C870.03 679.98 932.64 678.27 994.07 669.41C1028.15 664.49 1063.34 656.69 1088.07 637.85C1119.49 613.94 1127.27 573.44 1106.22 543.46C1070.92 493.16 973.3 480.66 948.62 426.69C935.01 396.97 949.01 363.86 968.74 336.32C1011.08 277.21 1082.06 225.32 1085.8 157.78C1088.37 111.37 1054.25 64.89 1001.49 42.93C946.19 19.93 869.49 22.81 828.7 60.93C786.69 100.14 712.87 115.24 649.58 113.22Z" fill="#195C5E"/>
<path opacity="0.1" d="M802.9 765.72C874.145 765.72 931.9 756.318 931.9 744.72C931.9 733.122 874.145 723.72 802.9 723.72C731.655 723.72 673.9 733.122 673.9 744.72C673.9 756.318 731.655 765.72 802.9 765.72Z" fill="#195C5E"/>
<path d="M295.39 389.56L295.07 407.2L292.45 550.22L270.04 602.71L192.8 603.59V397.68L273.41 391.3L295.39 389.56Z" fill="#5F5D7E"/>
<path opacity="0.1" d="M295.39 389.56L295.07 407.2L292.45 550.22L270.04 602.71L192.8 603.59V397.68L273.41 391.3L295.39 389.56Z" fill="black"/>
<path d="M295.39 389.56L295.07 407.2L292.45 550.22L270.04 602.71L275.94 407.54L275.92 407.41L273.41 391.3L295.39 389.56Z" fill="#5F5D7E"/>
<path opacity="0.1" d="M273.41 391.3L295.39 389.56L295.07 407.2L275.92 407.41L192.8 408.34V397.68L273.41 391.3Z" fill="black"/>
<path d="M989.68 397.68V602.4H971.7L899.76 549.93V391.91L964.03 385.87L967.97 387.68L971.7 389.4L989.68 397.68Z" fill="#5F5D7E"/>
<path opacity="0.1" d="M989.68 387.68H971.7V602.4H989.68V387.68Z" fill="black"/>
<path opacity="0.1" d="M989.68 387.68V399.45L971.7 399.66L899.76 400.45V391.91L964.03 385.87L967.97 387.68L971.7 389.4V387.68H989.68Z" fill="black"/>
<path d="M989.68 381V397.68L106.13 407.54V386.31L189.26 369.5L912.73 364.2L989.68 381Z" fill="#5F5D7E"/>
<path opacity="0.1" d="M989.68 381V397.68L106.13 407.54V386.31L989.68 381Z" fill="black"/>
<path opacity="0.1" d="M256.69 377.43C278.688 377.43 296.52 376.288 296.52 374.88C296.52 373.472 278.688 372.33 256.69 372.33C234.693 372.33 216.86 373.472 216.86 374.88C216.86 376.288 234.693 377.43 256.69 377.43Z" fill="black"/>
<path d="M290.12 276.29C289.277 277.455 288.603 278.735 288.12 280.09C288 280.42 287.88 280.8 287.76 281.16C287.534 281.052 287.295 280.971 287.05 280.92C286.022 280.657 284.958 280.562 283.9 280.64C283.9 280.233 283.92 279.803 283.96 279.35C284.09 274.69 283.54 268.19 279.09 270.94C274.83 273.59 277.87 278 280.62 280.85C280.86 281.1 281.1 281.33 281.33 281.55C278.82 283.35 278.33 287.5 277.92 291.84C277.51 296.18 273.82 300.94 271.38 303.64L270.68 304.39C269.693 303.598 268.548 303.025 267.322 302.71C266.096 302.394 264.817 302.343 263.57 302.56C263.457 302.18 263.347 301.78 263.24 301.36C261.24 294.21 257.15 281.82 251.9 279.1L252.59 278.23C254.82 275.31 257.33 270.98 253.59 269.87C249.85 268.76 249.59 273.63 249.76 277.27C249.76 277.73 249.82 278.16 249.86 278.57C249.124 278.609 248.403 278.796 247.742 279.121C247.08 279.446 246.491 279.901 246.01 280.46C245.83 280.24 245.65 280.02 245.44 279.78C242.44 276.23 236.92 270.61 235.25 274.87C233.7 278.87 238.55 283.97 241.97 286.95L242.18 287.14C239.89 296.44 249.89 304.02 255.28 307.33L255.97 307.76C248.54 316.51 243.97 332.92 243.97 332.92L264.77 336.64C264.77 336.64 278.56 324.74 276.77 313.56H276.91C290.69 310.8 293.83 296.1 291.68 287.38L291.93 287.28C294.437 286.245 296.634 284.582 298.31 282.45C302.17 277.08 294.08 271.03 290.12 276.29Z" fill="#195C5E"/>
<path opacity="0.1" d="M290.12 276.29C289.277 277.455 288.603 278.735 288.12 280.09C288 280.42 287.88 280.8 287.76 281.16C287.534 281.052 287.295 280.971 287.05 280.92C286.022 280.657 284.958 280.562 283.9 280.64C283.9 280.233 283.92 279.803 283.96 279.35C284.09 274.69 283.54 268.19 279.09 270.94C274.83 273.59 277.87 278 280.62 280.85C280.86 281.1 281.1 281.33 281.33 281.55C278.82 283.35 278.33 287.5 277.92 291.84C277.51 296.18 273.82 300.94 271.38 303.64L270.68 304.39C269.693 303.598 268.548 303.025 267.322 302.71C266.096 302.394 264.817 302.343 263.57 302.56C263.457 302.18 263.347 301.78 263.24 301.36C261.24 294.21 257.15 281.82 251.9 279.1L252.59 278.23C254.82 275.31 257.33 270.98 253.59 269.87C249.85 268.76 249.59 273.63 249.76 277.27C249.76 277.73 249.82 278.16 249.86 278.57C249.124 278.609 248.403 278.796 247.742 279.121C247.08 279.446 246.491 279.901 246.01 280.46C245.83 280.24 245.65 280.02 245.44 279.78C242.44 276.23 236.92 270.61 235.25 274.87C233.7 278.87 238.55 283.97 241.97 286.95L242.18 287.14C239.89 296.44 249.89 304.02 255.28 307.33L255.97 307.76C248.54 316.51 243.97 332.92 243.97 332.92L264.77 336.64C264.77 336.64 278.56 324.74 276.77 313.56H276.91C290.69 310.8 293.83 296.1 291.68 287.38L291.93 287.28C294.437 286.245 296.634 284.582 298.31 282.45C302.17 277.08 294.08 271.03 290.12 276.29Z" fill="black"/>
<path d="M248.71 282.29L246.28 289.41C246.28 289.41 244.93 288.46 243.22 286.95C239.81 283.95 234.95 278.83 236.51 274.87C238.18 270.61 243.69 276.23 246.7 279.78C247.91 281.2 248.71 282.29 248.71 282.29Z" fill="#195C5E"/>
<path d="M253.84 278.23C253.099 279.201 252.308 280.132 251.47 281.02C251.263 279.778 251.119 278.526 251.04 277.27C250.84 273.63 251.22 268.79 254.87 269.87C258.52 270.95 256.07 275.31 253.84 278.23Z" fill="#195C5E"/>
<path d="M285.21 279.35C285.14 281.69 284.91 283.56 284.91 283.56C283.847 282.729 282.845 281.823 281.91 280.85C279.16 278 276.11 273.59 280.38 270.94C284.79 268.19 285.34 274.69 285.21 279.35Z" fill="#195C5E"/>
<path d="M299.58 282.42C297.904 284.552 295.707 286.215 293.2 287.25C292.503 287.551 291.789 287.808 291.06 288.02L288.19 284.02C288.498 282.691 288.895 281.385 289.38 280.11C289.863 278.755 290.537 277.475 291.38 276.31C295.35 271.03 303.44 277.08 299.58 282.42Z" fill="#195C5E"/>
<path opacity="0.1" d="M246.7 279.78C247.91 281.2 248.7 282.29 248.7 282.29L246.27 289.41C246.27 289.41 244.92 288.46 243.21 286.95C243.589 284.671 244.53 282.523 245.95 280.7C246.2 280.37 246.45 280.06 246.7 279.78Z" fill="black"/>
<path opacity="0.1" d="M253.84 278.23C253.099 279.201 252.308 280.132 251.47 281.02C251.263 279.778 251.119 278.527 251.04 277.27C252.05 277.292 253.029 277.628 253.84 278.23V278.23Z" fill="black"/>
<path d="M265.8 306.49L259.75 309.15C258.646 308.599 257.571 307.992 256.53 307.33C250.17 303.42 237.39 293.58 245.96 281.97C254.53 270.36 261.68 291.18 264.49 301.36C265.34 304.4 265.8 306.49 265.8 306.49Z" fill="#195C5E"/>
<path opacity="0.1" d="M281.88 280.86C282.756 279.951 283.949 279.414 285.21 279.36C285.14 281.7 284.91 283.57 284.91 283.57C283.837 282.74 282.824 281.834 281.88 280.86V280.86Z" fill="black"/>
<path opacity="0.1" d="M293.2 287.25C292.503 287.551 291.789 287.808 291.06 288.02L288.19 284.02C288.498 282.691 288.895 281.385 289.38 280.11C291.23 281.17 292.59 283.86 293.2 287.25Z" fill="black"/>
<path d="M278.18 313.53C277.847 313.597 277.513 313.657 277.18 313.71C256.91 316.8 270.5 305.85 270.5 305.85C270.5 305.85 271.41 305.01 272.65 303.64C275.09 300.94 278.78 296.21 279.2 291.84C279.83 285.27 280.57 279.11 288.33 280.92C296.09 282.73 297.38 309.69 278.18 313.53Z" fill="#195C5E"/>
<path d="M277.81 364.02H239.06V374.21H277.81V364.02Z" fill="#474157"/>
<path d="M283.53 330.91H232.9V366.47H283.53V330.91Z" fill="#474157"/>
<path opacity="0.1" d="M277.43 364.02H238.68V374.21H277.43V364.02Z" fill="black"/>
<path opacity="0.1" d="M283.37 330.91H232.74V366.47H283.37V330.91Z" fill="black"/>
<path d="M280.36 364.02H241.61V374.21H280.36V364.02Z" fill="#474157"/>
<path opacity="0.1" d="M264.49 301.36C265.34 304.36 265.8 306.49 265.8 306.49L259.75 309.15C258.646 308.599 257.571 307.992 256.53 307.33C258.9 304.33 261.57 302.06 264.49 301.36Z" fill="black"/>
<path opacity="0.1" d="M278.18 313.53C277.847 313.597 277.513 313.657 277.18 313.71C256.91 316.8 270.5 305.85 270.5 305.85C270.5 305.85 271.41 305.01 272.65 303.64C276.41 306.67 278.01 310.08 278.18 313.53Z" fill="black"/>
<path d="M245.21 332.92C245.21 332.92 256.57 292.27 272.49 304.8C288.41 317.33 266.01 336.64 266.01 336.64L245.21 332.92Z" fill="#195C5E"/>
<path opacity="0.1" d="M250.95 289.61C251.651 289.61 252.22 289.041 252.22 288.34C252.22 287.639 251.651 287.07 250.95 287.07C250.249 287.07 249.68 287.639 249.68 288.34C249.68 289.041 250.249 289.61 250.95 289.61Z" fill="black"/>
<path opacity="0.1" d="M250.84 295.56C251.541 295.56 252.11 294.991 252.11 294.29C252.11 293.589 251.541 293.02 250.84 293.02C250.139 293.02 249.57 293.589 249.57 294.29C249.57 294.991 250.139 295.56 250.84 295.56Z" fill="black"/>
<path opacity="0.1" d="M287.78 290.78C288.481 290.78 289.05 290.211 289.05 289.51C289.05 288.809 288.481 288.24 287.78 288.24C287.079 288.24 286.51 288.809 286.51 289.51C286.51 290.211 287.079 290.78 287.78 290.78Z" fill="black"/>
<path opacity="0.1" d="M258.06 321.24C258.761 321.24 259.33 320.671 259.33 319.97C259.33 319.269 258.761 318.7 258.06 318.7C257.359 318.7 256.79 319.269 256.79 319.97C256.79 320.671 257.359 321.24 258.06 321.24Z" fill="black"/>
<path opacity="0.1" d="M285.12 300.65C285.821 300.65 286.39 300.081 286.39 299.38C286.39 298.679 285.821 298.11 285.12 298.11C284.419 298.11 283.85 298.679 283.85 299.38C283.85 300.081 284.419 300.65 285.12 300.65Z" fill="black"/>
<path opacity="0.1" d="M271.96 313.81C272.661 313.81 273.23 313.241 273.23 312.54C273.23 311.839 272.661 311.27 271.96 311.27C271.259 311.27 270.69 311.839 270.69 312.54C270.69 313.241 271.259 313.81 271.96 313.81Z" fill="black"/>
<path opacity="0.1" d="M255.3 292.16C256.001 292.16 256.57 291.591 256.57 290.89C256.57 290.189 256.001 289.62 255.3 289.62C254.599 289.62 254.03 290.189 254.03 290.89C254.03 291.591 254.599 292.16 255.3 292.16Z" fill="black"/>
<path opacity="0.1" d="M284.27 294.6C284.971 294.6 285.54 294.031 285.54 293.33C285.54 292.629 284.971 292.06 284.27 292.06C283.569 292.06 283 292.629 283 293.33C283 294.031 283.569 294.6 284.27 294.6Z" fill="black"/>
<path opacity="0.1" d="M279.92 304.47C280.621 304.47 281.19 303.901 281.19 303.2C281.19 302.499 280.621 301.93 279.92 301.93C279.219 301.93 278.65 302.499 278.65 303.2C278.65 303.901 279.219 304.47 279.92 304.47Z" fill="black"/>
<path opacity="0.1" d="M266.55 320.29C267.251 320.29 267.82 319.721 267.82 319.02C267.82 318.319 267.251 317.75 266.55 317.75C265.849 317.75 265.28 318.319 265.28 319.02C265.28 319.721 265.849 320.29 266.55 320.29Z" fill="black"/>
<path opacity="0.1" d="M263.79 314.03C264.491 314.03 265.06 313.461 265.06 312.76C265.06 312.059 264.491 311.49 263.79 311.49C263.089 311.49 262.52 312.059 262.52 312.76C262.52 313.461 263.089 314.03 263.79 314.03Z" fill="black"/>
<path opacity="0.1" d="M257.21 299.91C257.911 299.91 258.48 299.341 258.48 298.64C258.48 297.939 257.911 297.37 257.21 297.37C256.509 297.37 255.94 297.939 255.94 298.64C255.94 299.341 256.509 299.91 257.21 299.91Z" fill="black"/>
<path opacity="0.1" d="M280.36 364.02H241.61V367.74H280.36V364.02Z" fill="black"/>
<path d="M286.08 330.91H235.45V366.47H286.08V330.91Z" fill="#474157"/>
<path opacity="0.1" d="M268.25 326.02C268.951 326.02 269.52 325.451 269.52 324.75C269.52 324.049 268.951 323.48 268.25 323.48C267.549 323.48 266.98 324.049 266.98 324.75C266.98 325.451 267.549 326.02 268.25 326.02Z" fill="black"/>
<path opacity="0.1" d="M260.6 327.61C261.301 327.61 261.87 327.041 261.87 326.34C261.87 325.639 261.301 325.07 260.6 325.07C259.899 325.07 259.33 325.639 259.33 326.34C259.33 327.041 259.899 327.61 260.6 327.61Z" fill="black"/>
<path d="M382.01 466.79C382.01 466.79 388.32 475.04 379.1 487.5C369.88 499.96 362.27 510.5 365.34 518.24C365.34 518.24 379.26 495.1 390.58 494.78C401.9 494.46 394.43 480.7 382.01 466.79Z" fill="#195C5E"/>
<path opacity="0.1" d="M382.01 466.79C382.557 467.586 382.991 468.455 383.3 469.37C394.35 482.37 400.24 494.48 389.61 494.78C379.72 495.06 367.85 512.78 365.01 517.22C365.1 517.56 365.21 517.894 365.34 518.22C365.34 518.22 379.26 495.08 390.58 494.76C401.9 494.44 394.43 480.7 382.01 466.79Z" fill="black"/>
<path d="M393.7 477.3C393.7 480.21 393.37 482.56 392.97 482.56C392.57 482.56 392.24 480.21 392.24 477.3C392.24 474.39 392.65 475.77 393.05 475.77C393.45 475.77 393.7 474.4 393.7 477.3Z" fill="#FFD037"/>
<path d="M397.72 480.77C395.17 482.16 392.95 483 392.72 482.65C392.49 482.3 394.44 480.88 396.99 479.49C399.54 478.1 398.53 479.11 398.72 479.49C398.91 479.87 400.27 479.38 397.72 480.77Z" fill="#FFD037"/>
<path d="M348.64 466.79C348.64 466.79 342.32 475.04 351.55 487.5C360.78 499.96 368.38 510.5 365.3 518.24C365.3 518.24 351.39 495.1 340.06 494.78C328.73 494.46 336.18 480.7 348.64 466.79Z" fill="#195C5E"/>
<path opacity="0.1" d="M348.64 466.79C348.089 467.584 347.654 468.453 347.35 469.37C336.29 482.37 330.41 494.48 341.03 494.78C350.93 495.06 362.8 512.78 365.64 517.22C365.54 517.57 365.43 517.91 365.3 518.22C365.3 518.22 351.39 495.08 340.06 494.76C328.73 494.44 336.18 480.7 348.64 466.79Z" fill="black"/>
<path d="M336.9 477.3C336.9 480.21 337.23 482.56 337.63 482.56C338.03 482.56 338.36 480.21 338.36 477.3C338.36 474.39 337.95 475.77 337.55 475.77C337.15 475.77 336.9 474.4 336.9 477.3Z" fill="#FFD037"/>
<path d="M332.88 480.77C335.43 482.16 337.65 483 337.88 482.65C338.11 482.3 336.17 480.88 333.62 479.49C331.07 478.1 332.07 479.11 331.88 479.49C331.69 479.87 330.33 479.38 332.88 480.77Z" fill="#FFD037"/>
<path opacity="0.1" d="M365.31 581.37C401.75 581.37 431.29 576.835 431.29 571.24C431.29 565.645 401.75 561.11 365.31 561.11C328.87 561.11 299.33 565.645 299.33 571.24C299.33 576.835 328.87 581.37 365.31 581.37Z" fill="#195C5E"/>
<path d="M399.26 507.12L398.94 509.7L398.5 513.34L398.32 514.85L397.88 518.5L397.68 520.01L397.24 523.65L392.19 565.04C391.74 568.74 385.71 571.62 378.42 571.62H352.18C344.9 571.62 338.87 568.74 338.42 565.04L333.36 523.65L332.92 520.01L332.74 518.5L332.28 514.85L332.1 513.34L331.66 509.7L331.34 507.12C331.09 505.03 334.34 503.27 338.48 503.27H392.13C396.25 503.27 399.52 505.03 399.26 507.12Z" fill="#65617D"/>
<path d="M398.95 509.69L398.5 513.33H332.11L331.66 509.69H398.95Z" fill="#9D9CB5"/>
<path d="M398.32 514.85L397.88 518.49H332.74L332.29 514.85H398.32Z" fill="#9D9CB5"/>
<path d="M397.69 520.01L397.25 523.65H333.37L332.92 520.01H397.69Z" fill="#9D9CB5"/>
<path d="M565.47 366.54V368.6H504.56V366.93C508.396 365.511 511.705 362.949 514.04 359.591C516.375 356.233 517.625 352.24 517.62 348.15C517.621 344.318 516.52 340.566 514.449 337.341C512.379 334.116 509.425 331.554 505.94 329.96H565.06C561.534 331.567 558.551 334.163 556.473 337.434C554.395 340.705 553.311 344.509 553.355 348.383C553.398 352.258 554.566 356.037 556.717 359.26C558.868 362.483 561.909 365.013 565.47 366.54V366.54Z" fill="#C8CAD7"/>
<path opacity="0.1" d="M565.06 329.96C562.344 331.206 559.941 333.045 558.029 335.341C556.117 337.637 554.743 340.333 554.01 343.23H517.01C516.27 340.333 514.893 337.638 512.977 335.342C511.062 333.046 508.658 331.207 505.94 329.96H565.06Z" fill="black"/>
<path d="M434.81 319.46V331.03C434.81 337.41 439.49 342.59 445.25 342.59H624.46C630.22 342.59 634.9 337.41 634.9 331.03V319.46H434.81Z" fill="#C8CAD7"/>
<path opacity="0.1" d="M565.47 366.54V368.6H504.56V366.93C506.23 366.308 507.811 365.467 509.26 364.43H561.74C562.905 365.264 564.155 365.971 565.47 366.54V366.54Z" fill="black"/>
<path d="M582.56 365.07H487.49C485.806 365.07 484.44 366.436 484.44 368.12C484.44 369.804 485.806 371.17 487.49 371.17H582.56C584.244 371.17 585.61 369.804 585.61 368.12C585.61 366.436 584.244 365.07 582.56 365.07Z" fill="#C8CAD7"/>
<path d="M634.9 192.77C634.9 191.399 634.63 190.041 634.105 188.775C633.581 187.508 632.812 186.357 631.842 185.388C630.873 184.418 629.722 183.649 628.455 183.125C627.189 182.6 625.831 182.33 624.46 182.33H445.25C442.481 182.33 439.826 183.43 437.868 185.388C435.91 187.346 434.81 190.001 434.81 192.77V321.71H634.9V192.77Z" fill="#5F5D7E"/>
<path d="M629.44 197.42V308.22C629.44 309.583 628.898 310.891 627.935 311.855C626.971 312.818 625.663 313.36 624.3 313.36H445.41C444.047 313.36 442.739 312.818 441.775 311.855C440.812 310.891 440.27 309.583 440.27 308.22V197.42C440.285 196.516 440.54 195.632 441.01 194.86C441.462 194.079 442.111 193.431 442.892 192.98C443.673 192.529 444.558 192.291 445.46 192.29H624.3C625.661 192.29 626.967 192.83 627.931 193.792C628.895 194.754 629.437 196.059 629.44 197.42Z" fill="#195C5E"/>
<path d="M534.86 189.71C536.191 189.71 537.27 188.631 537.27 187.3C537.27 185.969 536.191 184.89 534.86 184.89C533.529 184.89 532.45 185.969 532.45 187.3C532.45 188.631 533.529 189.71 534.86 189.71Z" fill="white"/>
<path d="M534.86 337.45C538.141 337.45 540.8 334.791 540.8 331.51C540.8 328.229 538.141 325.57 534.86 325.57C531.579 325.57 528.92 328.229 528.92 331.51C528.92 334.791 531.579 337.45 534.86 337.45Z" fill="white"/>
<path d="M629.44 197.42H440.27C440.27 196.057 440.812 194.749 441.775 193.785C442.739 192.822 444.047 192.28 445.41 192.28H624.3C625.663 192.28 626.971 192.822 627.935 193.785C628.898 194.749 629.44 196.057 629.44 197.42Z" fill="white"/>
<path d="M445.42 196.13C446.127 196.13 446.7 195.557 446.7 194.85C446.7 194.143 446.127 193.57 445.42 193.57C444.713 193.57 444.14 194.143 444.14 194.85C444.14 195.557 444.713 196.13 445.42 196.13Z" fill="#EDEDF4"/>
<path d="M449.27 196.13C449.977 196.13 450.55 195.557 450.55 194.85C450.55 194.143 449.977 193.57 449.27 193.57C448.563 193.57 447.99 194.143 447.99 194.85C447.99 195.557 448.563 196.13 449.27 196.13Z" fill="#EDEDF4"/>
<path d="M453.12 196.13C453.827 196.13 454.4 195.557 454.4 194.85C454.4 194.143 453.827 193.57 453.12 193.57C452.413 193.57 451.84 194.143 451.84 194.85C451.84 195.557 452.413 196.13 453.12 196.13Z" fill="#EDEDF4"/>
<path d="M657.01 421.86C657.01 421.86 669.01 426.74 683.74 432.59C684.245 434.275 684.632 435.992 684.9 437.73C685.16 441.13 691.9 445.92 691.9 445.92C691.9 445.92 704.4 448.18 713.81 450.83C721.12 452.83 722.13 448.83 721.19 447.27L723.38 448.11C723.87 468.35 724.43 483.11 724.43 483.11C724.43 483.11 727.63 483.11 732.68 483.35C732.74 483.99 732.8 484.65 732.87 485.35C734.8 505.35 738.35 538.35 741.1 541.09C745.1 544.96 743.33 573.48 741.79 578.52C740.25 583.56 741.79 619.83 741.79 619.83C741.79 619.83 747.98 641.99 747.46 666.17C746.94 690.35 754.16 702.95 754.16 702.95L756.75 703.14C756.75 703.81 756.67 704.47 756.64 705.14C756.52 707.33 756.43 709.52 756.4 711.51C756.239 714.549 755.197 717.474 753.4 719.93C749.255 725.855 746.397 732.583 745.01 739.68C744.707 741.267 744.493 742.869 744.37 744.48C744.37 744.88 744.32 745.1 744.32 745.1C744.32 745.1 746.72 752.16 769.24 754.51C791.76 756.86 788.5 740.57 788.5 740.57C788.5 740.57 788.61 740.11 788.75 739.27C789.735 733.763 789.766 728.127 788.84 722.61C788.05 718.31 788.73 710.87 789.71 704.05C789.81 703.34 789.92 702.64 790.02 701.95C791.904 701.556 793.673 700.735 795.19 699.55C802.24 693.12 795.19 642 795.19 642C795.19 642 782.47 600.19 785.57 594.14C788.67 588.09 792.27 573.49 792.27 573.49V522.61C797.27 514.54 799.52 503.5 800.45 493.45C800.51 492.78 800.57 492.12 800.62 491.45C804.79 491.53 808.79 491.38 812.42 491.13L813.42 493.13C819.32 504.56 825.32 515.88 826.79 517.55C829.88 521.08 827.3 537.2 826.79 545.26C826.28 553.32 832.46 569.44 832.46 569.44C824.73 573.97 823.18 627.37 823.18 627.37C823.18 627.37 828.85 640.47 816.99 655.08C805.13 669.69 809.77 697.4 811.32 696.39C811.73 696.12 814.24 696.53 817.81 697.12C817.162 699.514 816.002 701.738 814.41 703.64C810.58 708.4 809.27 715.86 808.89 721.82C808.667 724.926 808.667 728.044 808.89 731.15L817.48 737.15C817.48 737.15 822.81 737.15 822.81 741.86C822.81 746.57 835.87 751.26 835.87 751.26C835.87 751.26 855.29 756.63 870.25 751.26C875.1 749.52 876.58 746.53 876.01 742.9C874.83 735.31 864.68 724.9 857.36 717.34C852.42 712.21 850.17 705.41 849.17 699.52C849.06 698.89 848.97 698.27 848.89 697.66C849.493 697.32 850.031 696.877 850.48 696.35C856.67 688.79 863.37 668.14 863.37 668.14C863.37 668.14 860.31 647.04 867.01 627.86C872.01 613.67 878.08 580.41 880.9 564.12C881.931 558.21 882.119 552.183 881.46 546.22C880.16 534.33 878.16 512.3 878.87 494.86C879.11 489.17 878.94 480.12 878.55 469.51V469.36C882.22 462.43 890.18 451.12 903.46 450.19C922.71 448.84 912.74 438.27 912.74 438.27C912.74 438.27 901.45 358.94 894.01 344.86C893.897 344.615 893.766 344.377 893.62 344.15C892.52 342.4 891.32 338.9 890.05 334.23C882.72 307.18 873.34 240.54 873.34 240.54L872.19 224.33C883.67 229.96 904.97 240.23 913.56 243.23C925.56 247.43 942.26 244.74 946.39 230.97C950.52 217.2 933.33 189.33 933.33 189.33C930.8 179.45 913.33 158.88 904.24 148.67C903.36 147.34 902.49 146.02 901.64 144.76C899.3 141.27 897.19 138.19 895.85 136.38L895.72 136.63C895.39 136.17 895.08 135.74 894.81 135.38L894.59 135.82C891.34 129.82 887.69 123.65 884.86 120.34C878.28 112.66 849.58 104.4 846.74 106.67C844.67 108.32 853.26 115.52 859.27 119.94L853.53 116.06L840.7 104.96L835.05 101.14C834.815 100.981 834.567 100.84 834.31 100.72C835.78 94.944 835.958 88.9146 834.831 83.0619C833.704 77.2091 831.3 71.677 827.79 66.86C827.39 66.31 826.96 65.76 826.53 65.23C832.44 60.31 834.31 52.18 834.31 45.03V44.76C833.873 42.0803 832.683 39.5799 830.88 37.55C830.97 37.73 831.06 37.93 831.14 38.12C830.106 36.7968 828.797 35.7137 827.303 34.9454C825.81 34.1771 824.168 33.742 822.49 33.67C817.49 33.59 813.3 36.87 808.91 39.12C804.394 41.3821 799.442 42.6425 794.394 42.8151C789.346 42.9877 784.32 42.0684 779.66 40.12C776.95 38.96 774.22 37.42 771.28 37.66C768.34 37.9 766.01 39.79 764.01 41.76C759.201 46.3956 755.419 51.9897 752.91 58.18C752.17 59.99 751.51 61.92 750.08 63.28C748.991 64.1687 747.811 64.9396 746.56 65.58C744.404 66.9535 742.549 68.7499 741.107 70.8606C739.665 72.9712 738.666 75.3523 738.17 77.86C737.237 82.8523 737.761 88.0078 739.68 92.71C740.84 95.965 742.736 98.9081 745.22 101.31C747.09 103.04 749.33 104.31 751.31 105.94C752.209 106.672 753.048 107.475 753.82 108.34C744.827 110.331 736.604 114.888 730.15 121.46C725.301 126.146 721.248 131.59 718.15 137.58C709.78 153.31 704.7 163.1 701.68 169.31C700.17 169.77 699.24 169.99 699.24 169.99C699.24 169.99 687.9 180.06 688.07 208.94L679.3 266.7V296.25C679.3 296.25 668.01 328.32 669.86 354.86C669.86 355.22 669.86 355.57 669.93 355.92L669.01 360.43C667.594 362.36 666.887 364.719 667.01 367.11C666.953 367.928 667.013 368.75 667.19 369.55L662.59 392.27L663.46 393.19L661.09 399.86C652.16 414.13 657.01 421.86 657.01 421.86ZM723.33 259.86C723.9 260.25 724.22 260.45 724.22 260.45C724.22 260.45 729.22 305.22 726.22 331.84L715.69 331.12L710.69 329.58L712.48 315.35C712.48 315.35 718.89 277.86 723.29 259.86H723.33ZM764.71 129.91L765.71 128.37C765.5 128.92 765.29 129.46 765.07 129.96L764.71 129.91ZM717.18 331.62L722.63 332.18L726.08 332.9C726.02 333.38 725.96 333.85 725.9 334.31L717.18 331.62ZM834.31 138.06C834.307 137.562 834.274 137.064 834.21 136.57L838.49 139.11L838.75 139.27C837.27 138.84 835.75 138.46 834.31 138.11V138.06ZM867.53 157.86C866.943 156.938 866.308 156.047 865.63 155.19C868.63 155.91 870.49 156.33 870.49 156.33C872.884 155.914 875.347 156.163 877.61 157.05C878.342 158.54 879.167 159.983 880.08 161.37L887.98 176.67C887.98 176.67 886.26 176.84 882.82 175.16C879.38 173.48 867.53 157.86 867.53 157.86ZM717.44 445.86L719.91 446.86C719.36 447.03 718.48 446.63 717.44 445.86Z" fill="url(#paint0_linear)"/>
<path d="M803.01 117.15C806.19 119.02 806.29 127.01 805.8 133.42C805.45 138.11 804.8 141.95 804.8 141.95L825.49 192.25C825.49 192.25 833.16 156.41 833.28 140.41C833.289 139.148 833.097 137.892 832.71 136.69C829.1 125.16 808.82 118.76 803.01 117.15Z" fill="#67647E"/>
<path d="M801.52 116.75C801.52 116.75 802.08 116.88 803.05 117.15C802.585 116.882 802.057 116.744 801.52 116.75V116.75Z" fill="#67647E"/>
<path d="M808.69 729.08L817.02 735.08C817.02 735.08 822.19 735.08 822.19 739.75C822.19 744.42 834.85 749.08 834.85 749.08C834.85 749.08 853.69 754.41 868.19 749.08C872.89 747.35 874.33 744.39 873.78 740.78C872.63 733.25 862.78 722.96 855.69 715.41C850.9 710.32 848.69 703.57 847.75 697.73C847.057 693.551 846.869 689.304 847.19 685.08L816.69 682.91C818.437 687.513 818.437 692.597 816.69 697.2C816.024 698.846 815.124 700.389 814.02 701.78C810.3 706.5 809.02 713.91 808.66 719.78C808.451 722.877 808.461 725.985 808.69 729.08V729.08Z" fill="#67647E"/>
<path d="M746.01 742.91C746.01 742.91 748.34 749.91 770.18 752.25C792.02 754.59 788.85 738.41 788.85 738.41C788.85 738.41 788.96 737.95 789.1 737.12C790.049 731.65 790.076 726.059 789.18 720.58C788.42 716.32 789.08 708.93 790.03 702.16C791.15 694.1 792.68 686.91 792.68 686.91L758.84 689.41C758.84 689.41 758.25 696.3 757.91 703.26C757.8 705.43 757.71 707.6 757.68 709.58C757.523 712.585 756.51 715.482 754.76 717.93C750.754 723.841 748.003 730.512 746.68 737.53C746.388 739.104 746.181 740.693 746.06 742.29C746.01 742.69 746.01 742.91 746.01 742.91Z" fill="#67647E"/>
<path d="M808.69 729.08L817.02 735.08C817.02 735.08 822.19 735.08 822.19 739.75C822.19 744.42 834.85 749.08 834.85 749.08C834.85 749.08 853.69 754.41 868.19 749.08C872.89 747.35 874.33 744.39 873.78 740.78C873.33 740.78 872.9 740.84 872.54 740.85C866.6 741.04 860.82 742.64 854.91 743.17C851.543 743.418 848.164 743.472 844.79 743.33C843.116 743.319 841.445 743.188 839.79 742.94C835.79 742.23 832.08 740.16 828.51 738.13C827.637 737.72 826.868 737.119 826.26 736.37C825.779 735.539 825.441 734.633 825.26 733.69C824 729.17 820.48 725.55 816.44 723.17C813.981 721.771 811.375 720.648 808.67 719.82C808.46 722.903 808.466 725.998 808.69 729.08V729.08Z" fill="#67647E"/>
<path d="M746.01 742.91C746.01 742.91 748.34 749.91 770.18 752.25C792.02 754.59 788.85 738.41 788.85 738.41C788.85 738.41 788.96 737.95 789.1 737.12C788.1 737.64 787.25 738.12 786.86 738.34C784.86 739.51 783.07 741.12 780.99 742.21C775.99 744.84 769.99 744.06 764.35 743.21C761.7 742.81 759.05 742.41 756.41 741.92C754.398 741.644 752.439 741.064 750.6 740.2C749.234 739.404 747.924 738.515 746.68 737.54C746.388 739.114 746.181 740.703 746.06 742.3C746.01 742.69 746.01 742.91 746.01 742.91Z" fill="#67647E"/>
<path opacity="0.1" d="M808.69 729.08L817.02 735.08C817.02 735.08 822.19 735.08 822.19 739.75C822.19 744.42 834.85 749.08 834.85 749.08C834.85 749.08 853.69 754.41 868.19 749.08C872.89 747.35 874.33 744.39 873.78 740.78C873.33 740.78 872.9 740.84 872.54 740.85C866.6 741.04 860.82 742.64 854.91 743.17C851.543 743.418 848.164 743.472 844.79 743.33C843.116 743.319 841.445 743.188 839.79 742.94C835.79 742.23 832.08 740.16 828.51 738.13C827.637 737.72 826.868 737.119 826.26 736.37C825.779 735.539 825.441 734.633 825.26 733.69C824 729.17 820.48 725.55 816.44 723.17C813.981 721.771 811.375 720.648 808.67 719.82C808.46 722.903 808.466 725.998 808.69 729.08V729.08Z" fill="black"/>
<path opacity="0.1" d="M746.01 742.91C746.01 742.91 748.34 749.91 770.18 752.25C792.02 754.59 788.85 738.41 788.85 738.41C788.85 738.41 788.96 737.95 789.1 737.12C788.1 737.64 787.25 738.12 786.86 738.34C784.86 739.51 783.07 741.12 780.99 742.21C775.99 744.84 769.99 744.06 764.35 743.21C761.7 742.81 759.05 742.41 756.41 741.92C754.398 741.644 752.439 741.064 750.6 740.2C749.234 739.404 747.924 738.515 746.68 737.54C746.388 739.114 746.181 740.703 746.06 742.3C746.01 742.69 746.01 742.91 746.01 742.91Z" fill="black"/>
<path opacity="0.1" d="M816.69 682.91C818.437 687.513 818.437 692.597 816.69 697.2C825.44 698.69 841.75 701.7 847.75 697.73C847.057 693.551 846.869 689.304 847.19 685.08L816.69 682.91Z" fill="black"/>
<path opacity="0.1" d="M757.92 703.26C764.1 703.7 780.73 704.57 790.04 702.16C791.16 694.1 792.69 686.91 792.69 686.91L758.85 689.41C758.85 689.41 758.26 696.3 757.92 703.26Z" fill="black"/>
<path d="M733.52 470.08C733.52 470.08 734.04 476.33 734.87 485.08C736.74 504.94 740.19 537.73 742.87 540.4C746.71 544.25 745.04 572.55 743.54 577.55C742.04 582.55 743.54 618.55 743.54 618.55C747.315 633.588 749.163 649.046 749.04 664.55C748.54 688.55 755.54 701.05 755.54 701.05C755.54 701.05 788.54 704.05 795.37 697.67C802.2 691.29 795.37 640.55 795.37 640.55C795.37 640.55 783.01 599.08 786.01 593.08C789.01 587.08 792.51 572.58 792.51 572.58V522.08C797.36 514.08 799.51 503.08 800.44 493.14C801.18 484.637 801.204 476.087 800.51 467.58C800.51 467.58 806.72 480.28 813.05 492.84C818.77 504.19 824.59 515.42 826.05 517.08C829.05 520.58 826.55 536.58 826.05 544.58C825.55 552.58 831.55 568.58 831.55 568.58C824.05 573.08 822.55 626.08 822.55 626.08C822.55 626.08 828.05 639.08 816.55 653.58C805.05 668.08 809.55 695.58 811.05 694.58C812.55 693.58 843.05 702.08 849.05 694.58C855.05 687.08 861.55 666.58 861.55 666.58C861.55 666.58 858.55 645.58 865.05 626.58C869.87 612.5 875.78 579.49 878.52 563.32C879.502 557.451 879.667 551.474 879.01 545.56C877.75 533.75 875.81 511.89 876.5 494.56C876.73 488.91 876.57 479.93 876.19 469.4C874.9 433.3 871 379.06 871 379.06L843.9 360.7L826.01 348.58L821.63 349.25L740.01 361.86L736.84 402.12L733.52 470.08Z" fill="#444053"/>
<path opacity="0.1" d="M843.92 360.72L845.35 368.58C845.35 368.58 857.35 426.08 859.85 455.58C862.35 485.08 872.85 476.58 872.85 476.58C873.766 474.103 874.89 471.707 876.21 469.42C874.92 433.32 871.02 379.08 871.02 379.08L843.92 360.72Z" fill="black"/>
<path d="M758.19 142.58C758.19 142.58 814.19 187.41 803.85 178.41C798.19 173.47 802.04 152.41 806.68 134.41C810.5 119.56 814.85 106.78 814.85 106.78C814.85 106.78 765.97 61.05 769.52 98.44C770.77 111.62 769.73 120.99 767.86 127.61C764.43 139.74 758.19 142.58 758.19 142.58Z" fill="#EFB7B9"/>
<path opacity="0.1" d="M762.85 130.66L798.35 158.41L808.68 146.91C808.68 146.91 817.52 143.08 818.18 147.41C818.84 151.74 821.35 178.41 816.18 180.91C811.01 183.41 804.35 185.08 798.52 184.25C792.69 183.42 786.18 176.91 781.85 174.41C777.52 171.91 761.52 158.91 761.52 158.91L753.52 147.75L762.85 130.66Z" fill="black"/>
<path d="M762.85 131.66L798.35 159.41L808.68 147.91C808.68 147.91 817.52 144.08 818.18 148.41C818.84 152.74 821.35 179.41 816.18 181.91C811.01 184.41 804.35 186.08 798.52 185.25C792.69 184.42 786.18 177.91 781.85 175.41C777.52 172.91 761.52 159.91 761.52 159.91L753.52 148.75L762.85 131.66Z" fill="#A36468"/>
<path opacity="0.1" d="M733.52 470.08C733.52 470.08 734.04 476.33 734.87 485.08C745.87 485.5 767.21 486.8 782.19 490.72C788.168 492.199 794.293 493.001 800.45 493.11C801.19 484.607 801.214 476.057 800.52 467.55C800.52 467.55 806.73 480.25 813.06 492.81C818.474 492.445 823.861 491.747 829.19 490.72L822.52 404.05C822.52 404.05 822.74 374.96 821.64 349.22L740.01 361.86L736.84 402.12L733.52 470.08Z" fill="black"/>
<path opacity="0.1" d="M794.85 156.08C794.85 156.08 770.6 129.57 764.85 133.78C759.1 137.99 755.38 148.25 755.38 148.25L775.13 169.91L794.85 156.08Z" fill="black"/>
<path d="M793.85 155.08C793.85 155.08 769.6 128.57 763.85 132.78C758.1 136.99 754.38 147.25 754.38 147.25L774.13 168.91L793.85 155.08Z" fill="#A36468"/>
<path opacity="0.1" d="M814.01 172.07L800.01 154.52C800.01 154.52 802.21 137.93 807.33 140.05C812.45 142.17 814.01 150.66 814.01 150.66V172.07Z" fill="black"/>
<path d="M815.01 170.91L801.08 153.36C801.08 153.36 803.28 136.77 808.4 138.89C813.52 141.01 815.01 149.5 815.01 149.5V170.91Z" fill="#A36468"/>
<path opacity="0.1" d="M750.85 139.41C750.85 139.41 779.56 170.41 796.7 172.49C798.25 172.68 799.8 172.94 801.33 173.25C805.81 174.13 815.57 173.25 814.02 147.62L816.18 143.08L829.52 151.25L834.02 187.91L842.02 281.91L853.85 386.58C853.85 386.58 817.52 383.08 807.35 392.25C797.18 401.42 794.35 342.25 794.35 342.25L766.52 222.25L736.85 145.08L750.85 139.41Z" fill="black"/>
<path opacity="0.1" d="M736.85 149.08L766.52 226.25L794.35 346.25C794.35 346.25 797.19 405.41 807.35 396.25C810.67 393.25 816.79 391.61 823.52 390.76C831.796 389.866 840.132 389.679 848.44 390.2C851.76 390.38 853.85 390.58 853.85 390.58L842.01 285.91L834.01 191.91L829.51 155.25L816.18 147.08L814.01 151.62C814.01 152.29 814.08 152.95 814.11 153.62C815.05 177.3 805.68 178.14 801.33 177.28C799.79 176.97 798.25 176.71 796.69 176.52C784.55 175.03 766.61 159.06 757.18 149.88C753.29 146.08 750.84 143.44 750.84 143.44L736.85 149.08Z" fill="black"/>
<path d="M736.85 146.08L766.52 223.25L794.35 343.25C794.35 343.25 797.19 402.41 807.35 393.25C810.67 390.25 816.79 388.61 823.52 387.76C831.796 386.866 840.132 386.679 848.44 387.2C851.76 387.38 853.85 387.58 853.85 387.58L842.01 282.91L834.01 188.91L829.51 152.25L816.18 144.08L814.01 148.62C814.01 149.29 814.08 149.95 814.11 150.62C815.05 174.3 805.68 175.14 801.33 174.28C799.79 173.97 798.25 173.71 796.69 173.52C784.55 172.03 766.61 156.06 757.18 146.88C753.29 143.08 750.84 140.44 750.84 140.44L736.85 146.08Z" fill="#195C5E"/>
<path opacity="0.1" d="M814.01 148.62C814.01 149.29 814.08 149.95 814.11 150.62L814.34 150.78C817.86 153.1 823.51 192.28 823.51 192.28L830.84 292.11L844.34 366.61C844.34 366.61 846.11 375.1 848.43 387.23C851.75 387.41 853.84 387.61 853.84 387.61L842.01 282.91L834.01 188.91L829.51 152.25L816.18 144.08L814.01 148.62Z" fill="black"/>
<path d="M804.83 141.95C804.83 141.95 812.83 148.43 816.35 150.75C819.87 153.07 825.52 192.25 825.52 192.25L832.85 292.08L846.35 366.58C846.35 366.58 858.35 424.08 860.85 453.58C863.35 483.08 873.85 474.58 873.85 474.58C873.85 474.58 881.69 451.58 900.35 450.25C919.01 448.92 909.35 438.41 909.35 438.41C909.35 438.41 898.42 359.64 891.23 345.61C891.118 345.369 890.991 345.135 890.85 344.91C889.79 343.17 888.62 339.7 887.39 335.06C880.28 308.22 871.19 242.06 871.19 242.06L865.52 160.06C851.01 136.41 806.01 137.23 806.01 137.23L804.83 141.95Z" fill="#67647E"/>
<path opacity="0.1" d="M736.85 146.08L766.52 223.25L794.35 343.25C794.35 343.25 797.19 402.41 807.35 393.25C810.67 390.25 816.79 388.61 823.52 387.76C823.4 367.42 822.78 330.92 819.85 315.58C817.314 301.563 816.255 287.318 816.69 273.08L780.35 193.91C780.35 193.91 753.02 160.22 752.85 155.4C752.79 153.62 754.73 150.32 757.19 146.85C753.3 143.05 750.85 140.41 750.85 140.41L736.85 146.08Z" fill="black"/>
<path d="M828.18 488.75L821.52 402.08C821.52 402.08 822.02 337.41 817.85 315.58C815.308 301.563 814.246 287.319 814.68 273.08L778.35 193.91C778.35 193.91 751.02 160.22 750.85 155.4C750.68 150.58 765.16 134.55 765.16 134.55C765.16 134.55 733.52 138.25 729.35 152.41C725.18 166.57 702.35 172.08 702.35 172.08C702.35 172.08 691.35 182.08 691.52 210.75C691.69 239.42 726.52 261.91 726.52 261.91C726.52 261.91 732.35 315.91 727.35 340.25C722.35 364.59 726.68 482.91 726.68 482.91C726.68 482.91 760.18 483.25 781.18 488.75C802.18 494.25 828.18 488.75 828.18 488.75Z" fill="#67647E"/>
<path d="M778.85 351.25L753.18 448.41C753.18 448.41 749.68 457.08 731.68 450.41C713.68 443.74 661.35 422.08 661.35 422.08C661.35 422.08 656.68 414.41 665.35 400.25L691.52 323.58L778.85 351.25Z" fill="#B07473"/>
<path d="M745.65 394.21L704.15 348.58L677.65 337.83L666.77 392.7L717.15 447.45L745.65 394.21Z" fill="#E1E7EF"/>
<path d="M701.3 409.45C701.3 409.45 713.64 416.7 716.89 416.95C720.14 417.2 731.62 438.87 726.77 438.7C721.92 438.53 710.64 432.7 711.77 435.7C712.9 438.7 720.25 447.7 722.39 446.85C724.53 446 725.52 453.45 716.39 450.85C707.26 448.25 695.14 445.97 695.14 445.97C695.14 445.97 688.64 441.22 688.39 437.85C688.14 434.48 682.52 416.72 682.52 416.72L701.3 409.45Z" fill="#EFB7B9"/>
<path d="M899.41 153.45C899.41 153.45 888.73 130.4 882.35 122.77C875.97 115.14 848.14 106.95 845.35 109.2C842.56 111.45 859.35 124.09 862.35 125.71C865.35 127.33 842.96 142.38 842.51 142.71C842.06 143.04 825.01 141.19 833.76 146.94C842.51 152.69 868.38 158.55 868.38 158.55C870.122 158.248 871.907 158.303 873.626 158.714C875.346 159.125 876.963 159.883 878.38 160.94C883.39 164.58 899.41 153.45 899.41 153.45Z" fill="#EFB7B9"/>
<path opacity="0.1" d="M677.24 410.61C678.654 415.246 680.551 419.721 682.9 423.96C685.4 421.7 709.27 413.83 709.27 413.83L706.62 409.74L702.3 403.08C702.3 403.08 681.02 398.46 677.4 403.08C676.18 404.63 676.4 407.49 677.24 410.61Z" fill="black"/>
<path d="M676.24 409.61C677.654 414.246 679.551 418.721 681.9 422.96C684.4 420.7 708.27 412.83 708.27 412.83L705.62 408.74L701.3 402.08C701.3 402.08 680.02 397.46 676.4 402.08C675.18 403.63 675.4 406.49 676.24 409.61Z" fill="#A36468"/>
<path opacity="0.1" d="M875.01 158.66C875.777 160.376 876.679 162.028 877.71 163.6C881.56 169.67 887.39 176.83 887.39 176.83C887.39 176.83 910.13 166.37 910.13 165.91C910.13 165.45 903.23 154.58 897.62 146.01C895.35 142.55 893.3 139.49 892 137.7C892 137.7 883.51 155.46 875.13 155.58C872.94 155.61 874.11 156.49 875.01 158.66Z" fill="black"/>
<path d="M876.01 159.66C876.777 161.376 877.679 163.028 878.71 164.6C882.56 170.67 888.39 177.83 888.39 177.83C888.39 177.83 911.13 167.37 911.13 166.91C911.13 166.45 904.23 155.58 898.62 147.01C896.35 143.55 894.3 140.49 893 138.7C893 138.7 884.51 156.46 876.13 156.58C873.94 156.61 875.11 157.49 876.01 159.66Z" fill="#A36468"/>
<path d="M747.77 343.08L750.69 334.33L709.71 331.45L725.02 333.08L744.52 337.26L743.02 343.08H747.77Z" fill="#B07473"/>
<path opacity="0.1" d="M676.24 409.61C680.76 407.48 692.82 403.05 705.62 408.74L701.3 402.08C701.3 402.08 680.02 397.46 676.4 402.08C675.18 403.63 675.4 406.49 676.24 409.61Z" fill="black"/>
<path d="M673.85 355.58C673.95 357.03 674.04 358.48 674.13 359.92C674.38 364.33 674.55 368.7 674.66 372.92C675.16 392.46 674.35 408.58 674.35 408.58C674.35 408.58 689.85 399.25 706.35 407.08L708.01 375.46V374.91L709.7 361.08L715.18 316.41C715.18 316.41 725.51 254.41 728.68 252.08C731.85 249.75 705.18 199.58 705.18 199.58L691.51 210.75L683.01 268.08V297.41C683.01 297.41 672.01 329.25 673.85 355.58Z" fill="#67647E"/>
<path opacity="0.1" d="M875.52 158.25L878.72 164.6C882.57 170.67 888.4 177.83 888.4 177.83C888.4 177.83 911.14 167.37 911.14 166.91C911.14 166.45 904.24 155.58 898.63 147.01C896.9 145.01 895.85 143.91 895.85 143.91C902.52 160.41 875.52 158.25 875.52 158.25Z" fill="black"/>
<path d="M856.18 155.4L865.52 160.08C865.52 160.08 877.02 175.58 880.35 177.25C883.68 178.92 885.35 178.75 885.35 178.75L875.52 159.25C875.52 159.25 902.52 161.41 895.85 144.91C895.85 144.91 926.02 177.91 929.35 191.25C929.35 191.25 946.02 218.91 942.02 232.58C938.02 246.25 921.85 248.91 910.18 244.75C898.51 240.59 862.68 222.25 862.68 222.25L856.18 155.4Z" fill="#67647E"/>
<path opacity="0.1" d="M889.68 187.91C889.68 187.91 914.85 216.08 912.85 219.91C910.85 223.74 891.01 193.58 889.68 187.91Z" fill="black"/>
<path opacity="0.2" d="M776.1 112.08C776.1 112.08 740.68 101.41 720.68 139.91C700.68 178.41 700.01 181.08 701.01 182.91C702.01 184.74 740.84 174.58 743.01 179.08C745.18 183.58 721.01 202.08 721.01 202.08L814.67 273.08L775.32 189.44C772.674 183.581 769.146 178.162 764.86 173.37C758.39 166.13 749.54 155.04 752.67 151.62C755.43 148.62 759.85 140.79 765.81 131.78C770.18 125.17 777.12 117.72 776.1 112.08Z" fill="black"/>
<path d="M777.1 111.08C777.1 111.08 741.68 100.41 721.68 138.91C701.68 177.41 701.01 180.08 702.01 181.91C703.01 183.74 741.84 173.58 744.01 178.08C746.18 182.58 722.01 201.08 722.01 201.08L814.67 273.08L776.32 188.44C773.674 182.581 770.146 177.162 765.86 172.37C759.39 165.13 750.54 154.04 753.67 150.62C756.43 147.62 760.85 139.79 766.81 130.78C771.18 124.17 778.12 116.72 777.1 111.08Z" fill="#67647E"/>
<path opacity="0.1" d="M777.1 111.08C777.1 111.08 741.68 100.41 721.68 138.91C701.68 177.41 701.01 180.08 702.01 181.91C703.01 183.74 741.84 173.58 744.01 178.08C746.18 182.58 722.01 201.08 722.01 201.08L814.67 273.08L774.48 184.37C772.924 180.922 770.817 177.75 768.24 174.98C761.91 168.16 750.13 154.49 753.67 150.62C756.43 147.62 760.85 139.79 766.81 130.78C771.18 124.17 778.12 116.72 777.1 111.08Z" fill="black"/>
<path d="M769.85 287.57C773.898 287.57 777.18 284.288 777.18 280.24C777.18 276.192 773.898 272.91 769.85 272.91C765.802 272.91 762.52 276.192 762.52 280.24C762.52 284.288 765.802 287.57 769.85 287.57Z" fill="#444053"/>
<path d="M769.85 333.07C773.898 333.07 777.18 329.788 777.18 325.74C777.18 321.692 773.898 318.41 769.85 318.41C765.802 318.41 762.52 321.692 762.52 325.74C762.52 329.788 765.802 333.07 769.85 333.07Z" fill="#444053"/>
<path d="M674.66 372.92C678.88 373.92 698.89 373.47 707.99 375.46V374.91L709.68 361.08C699.42 359.8 677.12 357.37 674.1 359.92C670.19 363.25 669.63 371.77 674.66 372.92Z" fill="#67647E"/>
<path opacity="0.1" d="M674.66 373.92C678.88 374.92 698.89 374.47 707.99 376.46V375.91L709.68 362.08C699.42 360.8 677.12 358.37 674.1 360.92C670.19 364.25 669.63 372.77 674.66 373.92Z" fill="black"/>
<path opacity="0.1" d="M674.66 372.92C678.88 373.92 698.89 373.47 707.99 375.46V374.91L709.68 361.08C699.42 359.8 677.12 357.37 674.1 359.92C670.19 363.25 669.63 371.77 674.66 372.92Z" fill="black"/>
<path d="M679.02 370.66C681.461 370.66 683.44 368.681 683.44 366.24C683.44 363.799 681.461 361.82 679.02 361.82C676.579 361.82 674.6 363.799 674.6 366.24C674.6 368.681 676.579 370.66 679.02 370.66Z" fill="#444053"/>
<path opacity="0.1" d="M762.52 383.91L743.85 447.58C743.85 447.58 738.85 449.91 738.85 445.75C738.85 441.59 762.52 383.91 762.52 383.91Z" fill="white"/>
<path opacity="0.1" d="M769.68 124.48C770.859 125.426 772.091 126.304 773.37 127.11C779.72 131.11 785.37 136.55 793.47 136.55C797.963 136.557 802.426 135.823 806.68 134.38C810.5 119.53 814.85 106.75 814.85 106.75C814.85 106.75 765.97 61.02 769.52 98.41C770.77 111.59 771.55 117.86 769.68 124.48Z" fill="black"/>
<path d="M752.41 93.49C752.41 101.611 754.818 109.549 759.33 116.302C763.842 123.054 770.254 128.317 777.757 131.425C785.26 134.532 793.516 135.345 801.48 133.761C809.445 132.177 816.761 128.266 822.504 122.524C828.246 116.781 832.157 109.465 833.741 101.5C835.325 93.5356 834.512 85.2798 831.404 77.777C828.297 70.2743 823.034 63.8616 816.282 59.3499C809.529 54.8381 801.591 52.43 793.47 52.43C788.071 52.4049 782.72 53.4497 777.727 55.5043C772.734 57.5588 768.198 60.5823 764.38 64.4001C760.562 68.2179 757.539 72.7543 755.484 77.7473C753.43 82.7403 752.385 88.0909 752.41 93.49V93.49Z" fill="#EFB7B9"/>
<path d="M816.74 127.86C817.117 128.799 817.792 129.59 818.66 130.11L825.18 134.11L837.37 141.52L856.66 153.24C857.113 153.513 857.573 153.763 858.04 153.99C860.301 155.139 862.796 155.754 865.332 155.789C867.868 155.823 870.378 155.277 872.67 154.19C874.401 153.411 875.923 152.233 877.11 150.752C878.298 149.271 879.117 147.529 879.5 145.67C880.013 143.082 879.797 140.402 878.875 137.93C877.954 135.457 876.363 133.29 874.28 131.67C874.176 131.581 874.053 131.516 873.92 131.48C869.814 130.328 865.952 128.441 862.52 125.91L850.38 117.51L839.54 107.6L834.06 103.81C833.257 103.253 832.311 102.939 831.334 102.903C830.358 102.868 829.391 103.113 828.55 103.61C822.93 106.86 811.74 115.22 816.74 127.86Z" fill="#E1E7EF"/>
<path d="M825.18 134.05L837.37 141.46C839.91 131.22 846.37 123.99 851.98 118.53L839.54 107.53C830.08 112.22 826.32 127.86 825.18 134.05Z" fill="#A36468"/>
<path opacity="0.1" d="M858.01 153.93C860.271 155.079 862.766 155.694 865.302 155.729C867.838 155.763 870.348 155.217 872.64 154.13C874.371 153.351 875.893 152.173 877.08 150.692C878.268 149.211 879.087 147.469 879.47 145.61C879.983 143.022 879.767 140.342 878.845 137.87C877.924 135.397 876.332 133.23 874.25 131.61C871.222 132.891 868.42 134.651 865.95 136.82C862.504 139.804 860.007 143.732 858.77 148.12C858.28 150.018 858.025 151.97 858.01 153.93V153.93Z" fill="black"/>
<path opacity="0.1" d="M752.41 93.49C752.402 99.47 753.706 105.379 756.23 110.8C758.707 113.266 760.594 116.261 761.75 119.56C764.53 122.94 765.62 124.85 769.33 127.19C770.82 125.62 774.18 124.67 774.79 122.64C776.34 117.41 775.46 111.82 775.38 106.37C775.38 103.95 775.72 101.09 777.85 99.93C779.62 98.93 781.85 99.65 783.59 100.63C785.33 101.61 787.06 102.88 789.06 103.11C792.06 103.45 794.8 101.34 796.48 98.86C798.16 96.38 799.13 93.48 800.72 90.94C802.82 87.59 805.92 85.02 808.97 82.52C812.46 79.64 815.85 76.45 819.57 73.87C821.79 72.32 824.45 71.6 826.64 70.04L826.99 69.78C821.957 62.6654 814.79 57.3368 806.528 54.5652C798.265 51.7937 789.335 51.723 781.03 54.3634C772.725 57.0038 765.475 62.2183 760.33 69.2523C755.184 76.2863 752.411 84.775 752.41 93.49V93.49Z" fill="black"/>
<path d="M833.31 48.1C832.44 42.34 827.67 36.93 821.85 36.83C817.04 36.75 812.94 40.01 808.68 42.24C804.317 44.4882 799.512 45.7437 794.607 45.9166C789.702 46.0895 784.82 45.1755 780.31 43.24C777.7 42.09 775.04 40.56 772.19 40.8C769.34 41.04 767.07 42.9 765.09 44.8C760.416 49.4315 756.752 54.9816 754.33 61.1C753.62 62.9 752.97 64.81 751.59 66.17C750.53 67.0403 749.384 67.8008 748.17 68.44C746.079 69.8279 744.287 71.6193 742.898 73.7091C741.508 75.7989 740.551 78.1451 740.08 80.61C739.178 85.5673 739.688 90.6782 741.55 95.36C742.677 98.5706 744.512 101.486 746.92 103.89C748.74 105.6 750.92 106.89 752.83 108.48C755.94 111.127 758.312 114.535 759.714 118.371C761.116 122.207 761.5 126.341 760.83 130.37C766.15 131.59 771.25 126.83 772.83 121.6C774.41 116.37 773.5 110.79 773.42 105.33C773.42 102.91 773.76 100.06 775.89 98.9C777.66 97.9 779.89 98.62 781.63 99.6C783.37 100.58 785.09 101.84 787.1 102.08C790.1 102.42 792.84 100.31 794.52 97.83C796.2 95.35 797.16 92.45 798.76 89.91C800.85 86.56 803.96 83.99 807.01 81.49C810.5 78.61 813.89 75.42 817.6 72.84C819.83 71.29 822.49 70.57 824.68 69.01C831.26 64.3 833.31 55.66 833.31 48.1Z" fill="#585268"/>
<path opacity="0.1" d="M801.52 116.75C801.52 116.75 802.08 116.88 803.05 117.15C802.585 116.882 802.057 116.744 801.52 116.75V116.75Z" fill="black"/>
<g opacity="0.1">
<path opacity="0.1" d="M770.79 118.37C772.34 113.14 771.46 107.55 771.38 102.1C771.38 99.68 771.72 96.82 773.85 95.66C775.62 94.66 777.85 95.38 779.59 96.36C781.33 97.34 783.05 98.61 785.06 98.84C788.06 99.18 790.8 97.08 792.48 94.59C794.16 92.1 795.12 89.21 796.72 86.67C798.81 83.32 801.92 80.75 804.97 78.25C808.46 75.38 811.85 72.18 815.56 69.6C817.79 68.05 820.45 67.33 822.64 65.77C829.26 61.03 831.31 52.39 831.31 44.84C831.087 43.3923 830.638 41.9885 829.98 40.68C831.743 42.7127 832.897 45.2012 833.31 47.86C833.31 55.41 831.31 64.05 824.64 68.79C822.45 70.35 819.79 71.07 817.56 72.62C813.85 75.2 810.46 78.4 806.97 81.27C803.92 83.77 800.81 86.34 798.72 89.69C797.12 92.23 796.17 95.13 794.48 97.61C792.79 100.09 790.04 102.2 787.06 101.86C785.06 101.63 783.36 100.35 781.59 99.38C779.82 98.41 777.59 97.72 775.85 98.68C773.72 99.84 773.34 102.68 773.38 105.12C773.46 110.57 774.38 116.12 772.79 121.39C771.2 126.66 766.13 131.39 760.79 130.15C760.958 129.211 761.062 128.263 761.1 127.31C765.55 126.93 769.46 122.86 770.79 118.37Z" fill="black"/>
<path opacity="0.1" d="M744.92 100.65C746.74 102.36 748.92 103.65 750.83 105.24C752.933 107.012 754.698 109.15 756.04 111.55C755.087 110.339 754.011 109.23 752.83 108.24C750.91 106.65 748.74 105.36 746.92 103.65C745.467 102.254 744.239 100.642 743.28 98.87C743.787 99.4987 744.335 100.093 744.92 100.65V100.65Z" fill="black"/>
</g>
<path opacity="0.1" d="M800.16 457.61C800.89 459.78 801.93 461.9 802.07 464.19C802.31 468.08 799.93 471.71 799.76 475.61C799.56 480.15 802.32 484.22 804.96 487.91C801.83 487.91 798.41 486.83 796.82 484.14C796.275 483.105 795.881 481.997 795.65 480.85C792.82 469.56 790.07 457.21 794.99 446.67C795.744 444.847 796.848 443.189 798.24 441.79C799.07 447.11 798.37 452.34 800.16 457.61Z" fill="black"/>
<path opacity="0.1" d="M878.38 377.93L886.69 366.72C888.69 364.01 890.76 361.19 891.48 357.9C892.26 354.29 891.35 350.55 891.23 346.9C891.23 346.49 891.23 346.07 891.23 345.65C891.118 345.409 890.991 345.175 890.85 344.95C889.79 343.21 888.62 339.74 887.39 335.1C886.178 336.304 885.237 337.753 884.63 339.35C880.76 348.79 884.34 359.87 881.14 369.55C880.22 372.33 878.72 374.99 878.38 377.93Z" fill="black"/>
<path opacity="0.1" d="M857.22 717.27C853.114 720.212 848.426 722.242 843.471 723.224C838.515 724.205 833.408 724.115 828.49 722.96" fill="black"/>
<path opacity="0.1" d="M788.37 718.92C786.268 720.89 783.783 722.407 781.071 723.378C778.359 724.349 775.476 724.753 772.602 724.566C769.727 724.378 766.921 723.603 764.358 722.288C761.795 720.973 759.529 719.146 757.7 716.92" fill="black"/>
<path opacity="0.1" d="M832.25 568.17C836.238 569.089 840.416 568.692 844.159 567.037C847.901 565.382 851.007 562.558 853.01 558.99" fill="black"/>
<path opacity="0.1" d="M784.85 593.44C778.514 593.904 772.211 592.174 767 588.54Z" fill="black"/>
<path opacity="0.1" d="M817.2 653.86C822.53 656.03 827.28 659.4 832.47 661.86C837.66 664.32 843.67 665.94 849.17 664.22" fill="black"/>
<path d="M529.34 668.69C576.351 668.69 614.46 657.699 614.46 644.14C614.46 630.581 576.351 619.59 529.34 619.59C482.33 619.59 444.22 630.581 444.22 644.14C444.22 657.699 482.33 668.69 529.34 668.69Z" fill="#5F5D7E"/>
<path opacity="0.1" d="M529.34 641.14C538.745 641.14 546.37 638.942 546.37 636.23C546.37 633.518 538.745 631.32 529.34 631.32C519.935 631.32 512.31 633.518 512.31 636.23C512.31 638.942 519.935 641.14 529.34 641.14Z" fill="black"/>
<path d="M537.37 506.73H519.87V636.23H537.37V506.73Z" fill="#5F5D7E"/>
<path opacity="0.1" d="M537.37 513.14V528.14C533.87 527.06 525.88 522.51 519.87 518.93V506.73H523.52L537.37 513.14Z" fill="black"/>
<path d="M496.14 450.35C496.14 450.35 553.92 435.48 568.3 424.35C582.68 413.22 639.15 465.6 631.69 485.35C624.23 505.1 597.07 519.43 597.07 519.43C597.07 519.43 521.95 531.65 509.17 506.16C496.39 480.67 496.14 450.35 496.14 450.35Z" fill="#474157"/>
<path opacity="0.1" d="M496.14 450.35C496.14 450.35 553.92 435.48 568.3 424.35C582.68 413.22 639.15 465.6 631.69 485.35C624.23 505.1 597.07 519.43 597.07 519.43C597.07 519.43 521.95 531.65 509.17 506.16C496.39 480.67 496.14 450.35 496.14 450.35Z" fill="black"/>
<path d="M491.14 444.35C491.14 444.35 548.92 429.48 563.3 418.35C577.68 407.22 634.15 459.6 626.69 479.35C619.23 499.1 592.07 513.43 592.07 513.43C592.07 513.43 516.95 525.65 504.17 500.16C491.39 474.67 491.14 444.35 491.14 444.35Z" fill="#474157"/>
<path opacity="0.1" d="M609.9 342.44C609.68 342.44 609.47 342.39 609.26 342.35C609.477 342.327 609.697 342.358 609.9 342.44V342.44Z" fill="black"/>
<path d="M438.72 400.07C432.95 398.66 417.04 397.36 409.47 422.75C407.708 428.648 405.463 434.39 402.76 439.92C395.49 454.83 386.12 485.48 427.37 492.23L526.37 514.73C526.37 514.73 579.37 521.23 582.87 518.73C586.37 516.23 585.87 510.73 585.87 510.73C585.87 510.73 527.37 510.73 515.87 492.73C504.37 474.73 503.87 450.23 503.87 450.23C503.87 450.23 505.31 412.4 444.87 401.41C442.83 401.04 440.77 400.57 438.72 400.07Z" fill="#474157"/>
<path opacity="0.1" d="M438.72 400.24C432.95 398.83 417.04 397.53 409.47 422.92C407.706 428.82 405.462 434.566 402.76 440.1C395.49 455 386.12 485.66 427.37 492.41L526.37 514.91C526.37 514.91 579.37 521.41 582.87 518.91C586.37 516.41 585.87 510.91 585.87 510.91C585.87 510.91 527.37 510.91 515.87 492.91C504.37 474.91 503.87 450.41 503.87 450.41C503.87 450.41 505.31 412.58 444.87 401.59C442.83 401.21 440.77 400.74 438.72 400.24Z" fill="black"/>
<path d="M646.25 374.2C645.677 370.539 643.795 367.211 640.954 364.833C638.112 362.455 634.504 361.189 630.8 361.27C618.09 361.51 581.8 363.05 559.68 372.83C554.82 374.98 549.95 377.07 544.95 378.83C540.43 380.44 535.04 383.01 532.37 386.7C529.7 390.39 466.87 438.7 557.37 485.2C557.37 485.2 605.87 499.01 624.87 466.61C624.87 466.61 638.37 431.8 637.37 419.75C636.37 407.7 646.37 375.2 646.37 375.2C646.37 375.2 646.35 374.86 646.25 374.2Z" fill="#474157"/>
<path opacity="0.1" d="M646.25 382.96C645.11 375.96 638.45 370.9 630.8 371.03C616.56 371.27 572.73 373.03 552.37 385.3C552.37 385.3 536.87 394.53 532.37 394.53C527.87 394.53 466.87 442.53 557.37 485.46C557.37 485.46 605.87 498.2 624.87 468.29C624.87 468.29 638.37 436.16 637.37 425.04C636.37 413.92 646.37 383.91 646.37 383.91C646.37 383.91 646.35 383.56 646.25 382.96Z" fill="black"/>
<path d="M597.87 485.23H581.87V519.3H597.87V485.23Z" fill="#5F5D7E"/>
</g>
<defs>
<linearGradient id="paint0_linear" x1="801.37" y1="754.75" x2="801.37" y2="33.69" gradientUnits="userSpaceOnUse">
<stop stop-color="#808080" stop-opacity="0.25"/>
<stop offset="0.54" stop-color="#808080" stop-opacity="0.12"/>
<stop offset="1" stop-color="#808080" stop-opacity="0.1"/>
</linearGradient>
<clipPath id="clip0">
<rect width="1118.03" height="765.72" fill="white"/>
</clipPath>
</defs>
</svg>
